# Blender v2.69 (sub 0) OBJ File: ''
# www.blender.org
mtllib TrainCraneSlider.mtl
o Slider_Cube.003
v -1.000000 14.239875 -1.749983
v -1.000000 14.239876 -4.249983
v -1.000000 13.550374 -1.749986
v 1.000000 14.239876 -4.249983
v -1.000000 13.550375 -4.249986
v 1.000000 14.239875 -1.749983
v 1.000000 13.550375 -4.249986
v 1.000000 13.550374 -1.749986
v -0.779108 13.621474 -2.215003
v -0.779108 13.621475 -3.784968
v -0.236923 13.239875 -2.761276
v 0.779108 13.621475 -3.784968
v -0.236923 13.239876 -3.238695
v 0.779108 13.621474 -2.215003
v 0.236923 13.239876 -3.238695
v 0.236923 13.239875 -2.761276
vn -1.000000 0.000000 0.000000
vn 0.000000 0.000004 -1.000000
vn 1.000000 0.000000 0.000000
vn 0.000000 -0.000004 1.000000
vn 0.000000 -1.000000 -0.000001
vn 0.000000 1.000000 0.000001
vn -0.575556 -0.817762 -0.000001
vn 0.000000 -0.819790 -0.572664
vn 0.575555 -0.817763 0.000000
vn 0.000000 -0.819790 0.572664
vn 0.000000 -1.000000 -0.000004
vn 0.000000 -1.000000 0.000000
vn 0.000000 1.000000 0.000000
vn -0.575555 -0.817763 0.000000
vn 0.000000 -0.819789 -0.572665
vn 0.575557 -0.817762 -0.000003
vn 0.000000 -0.819789 0.572665
usemtl None.004
s off
f 1//1 2//1 3//1
f 2//2 4//2 5//2
f 4//3 6//3 7//3
f 6//4 1//4 8//4
f 3//5 5//5 8//5
f 4//6 1//6 6//6
f 9//7 10//7 11//7
f 10//8 12//8 13//8
f 12//9 14//9 15//9
f 14//10 9//10 16//10
f 11//11 13//11 16//11
f 2//1 5//1 3//1
f 4//2 7//2 5//2
f 6//3 8//3 7//3
f 1//4 3//4 8//4
f 5//12 7//12 8//12
f 2//13 1//13 4//13
f 10//14 13//14 11//14
f 12//15 15//15 13//15
f 14//16 16//16 15//16
f 9//17 11//17 16//17
f 13//12 15//12 16//12
