# Blender v2.69 (sub 0) OBJ File: ''
# www.blender.org
mtllib zeeKraanHook.mtl
o Hook_Cube.000
v -0.865570 20.346565 -5.259322
v -0.865570 20.346565 -6.202024
v -1.084500 20.346565 -5.259322
v -0.865570 19.321901 -6.202024
v -1.084500 20.346565 -6.202024
v -0.865570 19.321901 -5.259322
v -1.042726 19.321901 -6.202024
v -1.042726 19.321901 -5.259322
v 0.865570 20.346565 -5.259322
v 1.084500 20.346565 -5.259322
v 0.865570 20.346565 -6.202024
v 1.084500 20.346565 -6.202024
v 0.865570 19.321901 -6.202024
v 1.042726 19.321901 -6.202024
v 0.865570 19.321901 -5.259322
v 1.042726 19.321901 -5.259322
v -0.865570 20.346560 5.259325
v -1.084500 20.346560 5.259325
v -0.865570 20.346560 6.202025
v -1.084500 20.346560 6.202025
v -0.865570 19.321896 6.202025
v -1.042726 19.321896 6.202025
v -0.865570 19.321896 5.259325
v -1.042726 19.321896 5.259325
v 0.865570 20.346560 5.259325
v 0.865570 20.346560 6.202025
v 1.084500 20.346560 5.259325
v 0.865570 19.321896 6.202025
v 1.084500 20.346560 6.202025
v 0.865570 19.321896 5.259325
v 1.042726 19.321896 6.202025
v 1.042726 19.321896 5.259325
v -0.959238 20.292625 6.500000
v -0.959238 20.292631 -6.500000
v -0.959238 19.945938 6.500000
v 0.959238 20.292631 -6.500000
v -0.959238 19.945942 -6.500000
v 0.959238 20.292625 6.500000
v 0.959238 19.945942 -6.500000
v 0.959238 19.945938 6.500000
v -0.378157 20.430931 0.693374
v -0.378157 20.430931 -0.693369
v -0.604377 20.151379 1.108158
v 0.378157 20.430931 -0.693369
v -0.604377 20.151379 -1.108157
v 0.378157 20.430931 0.693374
v 0.604377 20.151379 -1.108157
v 0.604377 20.151379 1.108158
v 0.105344 20.683798 -0.193152
v 0.105344 20.683798 0.193157
v 0.137203 20.412506 -0.251566
v -0.105344 20.683798 0.193157
v 0.137203 20.412506 0.251571
v -0.105344 20.683798 -0.193152
v -0.137203 20.412506 0.251571
v -0.137203 20.412506 -0.251566
vn 0.000000 1.000000 0.000000
vn 0.000000 0.000000 -1.000000
vn 0.000000 -1.000000 0.000000
vn 0.000000 0.000000 1.000000
vn -0.999170 -0.040735 0.000000
vn 1.000000 0.000000 0.000000
vn 0.999170 -0.040735 0.000000
vn -1.000000 0.000000 0.000000
vn 0.000000 1.000000 0.000001
vn -0.777360 0.629056 0.000000
vn 0.000000 0.829246 -0.558884
vn 0.777360 0.629056 0.000000
vn 0.000000 0.829244 0.558886
vn 0.993175 0.116633 0.000000
vn 0.000000 0.210495 0.977595
vn -0.993175 0.116633 0.000000
vn 0.000000 0.210495 -0.977595
vn -0.999170 -0.040734 0.000000
vn 0.999170 -0.040734 0.000000
vn -0.777359 0.629057 0.000000
vn 0.000000 0.829246 -0.558883
vn 0.777359 0.629057 0.000000
vn 0.000000 0.829245 0.558885
vn 0.000000 0.210494 0.977595
usemtl None.003
s off
f 1//1 2//1 3//1
f 2//2 4//2 5//2
f 4//3 6//3 7//3
f 6//4 1//4 3//4
f 3//5 5//5 8//5
f 4//6 1//6 6//6
f 9//1 10//1 11//1
f 11//2 12//2 13//2
f 13//3 14//3 15//3
f 15//4 16//4 10//4
f 10//7 16//7 12//7
f 15//8 9//8 13//8
f 17//1 18//1 19//1
f 19//4 20//4 21//4
f 21//3 22//3 23//3
f 23//2 24//2 18//2
f 18//5 24//5 20//5
f 23//6 17//6 21//6
f 25//1 26//1 27//1
f 26//4 28//4 29//4
f 28//3 30//3 31//3
f 30//2 25//2 27//2
f 27//7 29//7 32//7
f 30//8 28//8 25//8
f 33//8 34//8 35//8
f 34//2 36//2 37//2
f 36//6 38//6 39//6
f 38//4 33//4 40//4
f 35//3 37//3 40//3
f 38//9 36//9 33//9
f 41//10 42//10 43//10
f 42//11 44//11 45//11
f 44//12 46//12 47//12
f 46//13 41//13 48//13
f 49//14 50//14 51//14
f 41//1 46//1 42//1
f 50//1 49//1 52//1
f 50//15 52//15 53//15
f 52//16 54//16 55//16
f 54//17 49//17 56//17
f 2//1 5//1 3//1
f 4//2 7//2 5//2
f 6//3 8//3 7//3
f 8//4 6//4 3//4
f 5//18 7//18 8//18
f 2//6 1//6 4//6
f 10//1 12//1 11//1
f 12//2 14//2 13//2
f 14//3 16//3 15//3
f 9//4 15//4 10//4
f 16//19 14//19 12//19
f 9//8 11//8 13//8
f 18//1 20//1 19//1
f 20//4 22//4 21//4
f 22//3 24//3 23//3
f 17//2 23//2 18//2
f 24//18 22//18 20//18
f 17//6 19//6 21//6
f 26//1 29//1 27//1
f 28//4 31//4 29//4
f 30//3 32//3 31//3
f 32//2 30//2 27//2
f 29//19 31//19 32//19
f 28//8 26//8 25//8
f 34//8 37//8 35//8
f 36//2 39//2 37//2
f 38//6 40//6 39//6
f 33//4 35//4 40//4
f 37//3 39//3 40//3
f 36//1 34//1 33//1
f 42//20 45//20 43//20
f 44//21 47//21 45//21
f 46//22 48//22 47//22
f 41//23 43//23 48//23
f 50//14 53//14 51//14
f 46//1 44//1 42//1
f 49//1 54//1 52//1
f 52//24 55//24 53//24
f 54//16 56//16 55//16
f 49//17 51//17 56//17
