# Blender v2.69 (sub 0) OBJ File: 'zeekraan.blend'
# www.blender.org
mtllib zeekraan.mtl
o Frame_Cube.001
v 5.105813 1.593728 -6.666666
v 5.105813 1.593730 -10.000000
v 5.105813 0.000002 -6.666667
v 7.658718 1.593730 -10.000000
v 5.105813 0.000004 -10.000000
v 7.658718 1.593728 -6.666666
v 7.658718 0.000004 -10.000000
v 7.658718 0.000002 -6.666667
v 5.546008 2.881405 -9.425235
v 7.218521 2.881405 -9.425235
v 7.218521 22.098219 -7.241424
v 5.546008 22.098219 -7.241424
v 7.218521 2.881405 -7.241431
v 5.546008 2.881405 -7.241431
v -7.218521 2.881400 9.425235
v -5.546008 2.881400 9.425235
v -7.218521 23.632423 9.425242
v -5.105813 1.593728 -6.666666
v -5.105813 0.000002 -6.666667
v -5.105813 1.593730 -10.000000
v -5.105813 0.000004 -10.000000
v -7.658718 1.593730 -10.000000
v -7.658718 0.000004 -10.000000
v -7.658718 1.593728 -6.666666
v -7.658718 0.000002 -6.666667
v -5.546008 2.881405 -9.425235
v -7.218521 2.881405 -9.425235
v -7.218521 22.098219 -7.241424
v -7.218521 2.881405 -7.241431
v -5.546008 22.098219 -7.241424
v -5.546008 2.881405 -7.241431
v 7.218521 22.098211 7.241440
v 7.218521 2.881400 9.425235
v 7.218521 2.881400 7.241433
v 5.105813 1.593724 6.666667
v 5.105813 -0.000002 6.666667
v 5.105813 1.593722 10.000000
v 5.105813 -0.000004 10.000000
v 7.658718 1.593722 10.000000
v 7.658718 -0.000004 10.000000
v 7.658718 1.593724 6.666667
v 7.658718 -0.000002 6.666667
v 5.546008 2.881400 9.425235
v 5.546008 22.098211 7.241440
v 5.546008 2.881400 7.241433
v -5.546008 23.632431 -9.425227
v -7.218521 23.632431 -9.425227
v -36.643810 22.637226 -0.555547
v 13.356190 22.637226 -0.555547
v -36.643810 22.637226 -1.666659
v 13.356190 21.682745 -0.555547
v -36.643810 21.682745 -0.555547
v 13.356190 21.682745 -1.666659
v -36.643810 22.637226 1.666674
v -36.643810 21.682745 1.666674
v 13.356190 22.637226 1.666674
v -36.643810 22.637226 0.555563
v -36.643810 21.682745 0.555562
v 13.356190 22.637226 -1.666659
v -5.105813 1.593724 6.666667
v -5.105813 1.593722 10.000000
v -5.105813 -0.000002 6.666667
v -7.658718 1.593722 10.000000
v -5.105813 -0.000004 10.000000
v -7.658718 1.593724 6.666667
v -7.658718 -0.000004 10.000000
v -7.658718 -0.000002 6.666667
v -7.218521 22.098211 7.241440
v -5.546008 22.098211 7.241440
v -7.218521 2.881400 7.241433
v -5.546008 2.881400 7.241433
v -5.546008 23.632423 9.425242
v 5.546008 23.632431 -9.425227
v 5.546008 23.632423 9.425242
v 7.218521 23.632423 9.425242
v 13.356190 21.682745 1.666674
v 13.356190 21.682745 0.555562
v -36.643810 21.682745 -1.666659
v 13.356190 22.637226 0.555563
v -35.258747 24.459740 6.617921
v -35.258747 24.459747 -6.617905
v -35.258747 22.562469 6.617921
v 11.769592 24.459747 -6.617905
v -35.258747 22.562477 -6.617905
v 11.769592 24.459740 6.617921
v 11.769592 22.562477 -6.617905
v 11.769592 22.562469 6.617921
v -31.772432 22.562473 -2.065817
v -31.772432 22.562473 2.065833
v 8.283276 24.459743 -2.065817
v 8.283276 24.459743 2.065833
v -31.772432 24.459743 2.065833
v -31.772432 24.459743 -2.065817
v 8.283276 22.562473 -2.065817
v 8.283276 22.562473 2.065833
v 5.843910 29.999998 7.623485
v 5.843910 28.693487 -7.623465
v 5.843910 24.203106 -7.623467
v 12.031268 28.693487 -7.623465
v 12.031268 29.999998 7.623485
v 12.031268 24.203106 -7.623467
v 12.031268 24.203098 7.623483
v 5.843910 24.203098 7.623483
v -6.070507 11.830370 -8.999788
v 6.070507 11.830370 -8.999788
v -6.070507 8.642918 -8.999790
v 6.070507 11.830368 -7.666871
v -6.070507 11.830368 -7.666871
v 6.070507 8.642916 -7.666872
v -6.070507 8.642916 -7.666872
v -6.070507 11.830364 7.666878
v 6.070507 11.830364 7.666878
v -6.070507 8.642912 7.666877
v 6.070507 11.830362 8.999796
v -6.070507 11.830362 8.999796
v 6.070507 8.642910 8.999794
v -6.070507 8.642910 8.999794
v 7.218521 23.632431 -9.425227
v 6.070507 8.642918 -8.999790
v 6.070507 8.642912 7.666877
vt 0.902982 0.459988
vt 0.902981 0.421668
vt 0.923878 0.459988
vt 0.509726 0.105522
vt 0.479600 0.105522
vt 0.509726 0.087200
vt 0.675256 0.277411
vt 0.675256 0.315733
vt 0.654359 0.277411
vt 0.318170 0.336105
vt 0.350069 0.336105
vt 0.318170 0.355505
vt 0.504531 0.121734
vt 0.484794 0.121733
vt 0.323673 0.085012
vt 0.344571 0.085013
vt 0.323671 0.318939
vt 0.344569 0.318939
vt 0.692921 0.284019
vt 0.692921 0.309125
vt 0.885316 0.428276
vt 0.885317 0.453381
vt 0.470314 0.324997
vt 0.450577 0.324997
vt 0.470314 0.086435
vt 0.902705 0.342105
vt 0.923602 0.342105
vt 0.902704 0.380426
vt 0.539150 0.105462
vt 0.539150 0.087140
vt 0.569276 0.105462
vt 0.678469 0.255570
vt 0.657572 0.255570
vt 0.678470 0.217250
vt 0.349323 0.104041
vt 0.349324 0.084482
vt 0.381483 0.104042
vt 0.544344 0.121674
vt 0.564081 0.121674
vt 0.354853 0.357181
vt 0.354867 0.121346
vt 0.375921 0.357181
vt 0.375937 0.121347
vt 0.696133 0.248963
vt 0.696134 0.223858
vt 0.885040 0.348712
vt 0.885039 0.373817
vt 0.944894 0.475620
vt 0.692924 0.500722
vt 0.692924 0.475617
vt 0.902983 0.613276
vt 0.923880 0.613277
vt 0.902982 0.651598
vt 0.540022 0.341208
vt 0.540022 0.359530
vt 0.509896 0.341208
vt 0.675258 0.507330
vt 0.654361 0.507329
vt 0.675259 0.469009
vt 0.413026 0.104457
vt 0.413027 0.084780
vt 0.445381 0.104458
vt 0.534828 0.324997
vt 0.515091 0.324997
vt 0.418592 0.359139
vt 0.418604 0.121868
vt 0.439789 0.359140
vt 0.439801 0.121869
vt 0.885317 0.619884
vt 0.885317 0.644990
vt 0.544345 0.360234
vt 0.564082 0.360234
vt 0.304105 0.943109
vt 0.894156 0.943109
vt 0.304105 0.955882
vt 0.894156 0.942196
vt 0.304105 0.942196
vt 0.894156 0.929423
vt 0.032664 0.919293
vt 0.032664 0.908320
vt 0.622697 0.919293
vt 0.646344 0.919188
vt 0.646344 0.908215
vt 0.660913 0.919188
vt 0.620734 0.052009
vt 0.620734 0.062982
vt 0.030702 0.052009
vt 0.676523 0.908215
vt 0.676523 0.919188
vt 0.661954 0.908215
vt 0.902704 0.188815
vt 0.902705 0.150494
vt 0.923601 0.188815
vt 0.445382 0.341208
vt 0.475508 0.341208
vt 0.445382 0.359530
vt 0.678461 0.025646
vt 0.678461 0.063968
vt 0.657563 0.025646
vt 0.381482 0.339159
vt 0.413811 0.339157
vt 0.381483 0.358821
vt 0.387042 0.084678
vt 0.408222 0.084677
vt 0.387055 0.321761
vt 0.408236 0.321760
vt 0.696126 0.032254
vt 0.696126 0.057360
vt 0.885039 0.182207
vt 0.885040 0.157101
vt 0.655778 0.767227
vt 0.408612 0.767227
vt 0.655778 0.749922
vt 0.504528 0.360294
vt 0.797215 0.826782
vt 0.607316 0.826782
vt 0.797215 0.809477
vt 0.534827 0.086435
vt 0.515090 0.086435
vt 0.871960 0.108414
vt 0.871960 0.125719
vt 0.624793 0.108414
vt 0.249022 0.765704
vt 0.031816 0.765706
vt 0.249022 0.745909
vt 0.633069 0.348704
vt 0.633349 0.453383
vt 0.948100 0.223862
vt 0.304105 0.970483
vt 0.894169 0.970483
vt 0.304105 0.983256
vt 0.894156 0.969570
vt 0.304105 0.969570
vt 0.894156 0.956797
vt 0.630734 0.919188
vt 0.630734 0.908215
vt 0.645302 0.919188
vt 0.620734 0.040123
vt 0.620734 0.051096
vt 0.030702 0.040123
vt 0.692133 0.908215
vt 0.692133 0.919188
vt 0.677564 0.908215
vt 0.620734 0.028237
vt 0.620734 0.039209
vt 0.030702 0.028237
vt 0.780668 0.796797
vt 0.607120 0.796797
vt 0.780668 0.774986
vt 0.032054 0.779202
vt 0.587021 0.779202
vt 0.032053 0.801014
vt 0.270201 0.746338
vt 0.390407 0.746338
vt 0.270201 0.768142
vt 0.587021 0.834483
vt 0.032053 0.834482
vt 0.587021 0.812671
vt 0.082885 0.434314
vt 0.082885 0.479137
vt 0.044062 0.384930
vt 0.528739 0.634036
vt 0.528739 0.589213
vt 0.567562 0.683420
vt 0.490645 0.707268
vt 0.490645 0.729080
vt 0.436471 0.707268
vt 0.031509 0.864609
vt 0.031509 0.842797
vt 0.504201 0.864609
vt 0.358861 0.729614
vt 0.358861 0.707803
vt 0.413034 0.729614
vt 0.501750 0.876648
vt 0.501750 0.898460
vt 0.029058 0.876649
vt 0.528943 0.479137
vt 0.528943 0.434314
vt 0.567767 0.528521
vt 0.082681 0.589213
vt 0.082681 0.634036
vt 0.043857 0.539829
vt 0.044062 0.528521
vt 0.567767 0.384930
vt 0.567563 0.539829
vt 0.043858 0.683420
vt 0.899074 0.771097
vt 0.699157 0.756076
vt 0.699157 0.704453
vt 0.588317 0.897458
vt 0.515301 0.897458
vt 0.588317 0.845836
vt 0.088005 0.285953
vt 0.301710 0.269897
vt 0.088005 0.341136
vt 0.680698 0.833441
vt 0.680698 0.897460
vt 0.604689 0.833441
vt 0.301710 0.243552
vt 0.088005 0.243552
vt 0.301710 0.175118
vt 0.304196 0.156306
vt 0.089707 0.156306
vt 0.304196 0.087872
vt 0.790450 0.898314
vt 0.884021 0.898314
vt 0.790264 0.854205
vt 0.774412 0.896939
vt 0.694786 0.896939
vt 0.774412 0.857834
vt 0.802276 0.924364
vt 0.802260 0.903676
vt 0.880691 0.924317
vt 0.791505 0.919910
vt 0.791505 0.908976
vt 0.703712 0.919910
vt 0.037212 0.697347
vt 0.180485 0.697347
vt 0.037212 0.733991
vt 0.342513 0.736927
vt 0.199240 0.736927
vt 0.342513 0.700283
vt 0.824205 0.832672
vt 0.824205 0.817349
vt 0.967478 0.832672
vt 0.652953 0.712770
vt 0.652953 0.728094
vt 0.509680 0.712770
vt 0.923877 0.421668
vt 0.479600 0.087200
vt 0.654359 0.315733
vt 0.350069 0.355505
vt 0.450577 0.086435
vt 0.923601 0.380426
vt 0.569276 0.087140
vt 0.657573 0.217250
vt 0.381484 0.084483
vt 0.965010 0.500726
vt 0.944894 0.309121
vt 0.965010 0.284015
vt 0.923879 0.651598
vt 0.509896 0.359530
vt 0.654362 0.469008
vt 0.445382 0.084781
vt 0.894156 0.955883
vt 0.304105 0.929422
vt 0.622697 0.908320
vt 0.660913 0.908215
vt 0.030702 0.062982
vt 0.661954 0.919188
vt 0.923602 0.150495
vt 0.475508 0.359530
vt 0.657563 0.063968
vt 0.413813 0.358819
vt 0.408612 0.749922
vt 0.484791 0.360294
vt 0.607316 0.809477
vt 0.624793 0.125719
vt 0.031815 0.745912
vt 0.612952 0.373810
vt 0.633070 0.182204
vt 0.612954 0.157098
vt 0.633349 0.619883
vt 0.613233 0.644988
vt 0.613233 0.428278
vt 0.968216 0.248968
vt 0.948101 0.057361
vt 0.968218 0.032255
vt 0.620741 0.014550
vt 0.620741 0.027324
vt 0.030702 0.027324
vt 0.304105 0.956796
vt 0.645302 0.908215
vt 0.030702 0.051096
vt 0.677564 0.919188
vt 0.030702 0.039210
vt 0.607120 0.774986
vt 0.587021 0.801013
vt 0.390408 0.768142
vt 0.032053 0.812671
vt 0.436471 0.729080
vt 0.504201 0.842798
vt 0.413035 0.707803
vt 0.029058 0.898460
vt 0.899074 0.704453
vt 0.515301 0.845836
vt 0.301710 0.341136
vt 0.604689 0.897460
vt 0.088005 0.175118
vt 0.089707 0.087872
vt 0.884021 0.854205
vt 0.694786 0.857834
vt 0.880674 0.903714
vt 0.703712 0.908976
vt 0.180485 0.733991
vt 0.199240 0.700283
vt 0.967478 0.817349
vt 0.509680 0.728094
vn -1.000000 0.000000 0.000000
vn 0.000000 0.000000 -1.000000
vn 1.000000 0.000000 0.000000
vn 0.000000 -0.000001 1.000000
vn 0.000000 0.407597 -0.913162
vn 0.000000 -0.000000 1.000000
vn 0.000000 0.407597 0.913162
vn 0.946237 0.323474 0.000000
vn -0.946237 0.323474 0.000000
vn 0.946237 0.323473 0.000000
vn 0.000000 0.407598 -0.913162
vn 0.000000 1.000000 0.000000
vn 0.000000 -1.000000 0.000000
vn 0.000000 -1.000000 -0.000001
vn -1.000000 -0.000007 0.000000
vn 1.000000 0.000004 0.000000
vn -0.000001 -1.000000 0.000000
vn -0.000001 1.000000 0.000000
vn 0.000000 1.000000 0.000001
vn 0.000000 0.996349 -0.085377
vn 0.000000 0.000001 -1.000000
vn 0.000000 -1.000000 -0.000002
vn 0.000000 1.000000 0.000002
vn 1.000000 0.000001 0.000000
vn -1.000000 0.000001 0.000000
vn 1.000000 -0.000001 0.000000
vn 0.946237 0.323475 0.000000
vn -0.946237 0.323475 0.000000
vn -1.000000 -0.000001 0.000000
vn -1.000000 0.000005 0.000000
usemtl None.002
s off
f 1/1/1 2/2/1 3/3/1
f 2/4/2 4/5/2 5/6/2
f 4/7/3 6/8/3 7/9/3
f 6/10/4 1/11/4 8/12/4
f 9/13/5 10/14/5 2/4/5
f 11/15/6 12/16/6 13/17/6
f 13/17/7 14/18/7 6/10/7
f 10/19/8 13/20/8 4/7/8
f 9/21/9 1/1/9 14/22/9
f 15/23/6 16/24/6 17/25/6
f 18/26/3 19/27/3 20/28/3
f 20/29/2 21/30/2 22/31/2
f 22/32/1 23/33/1 24/34/1
f 24/35/4 25/36/4 18/37/4
f 26/38/5 20/29/5 27/39/5
f 28/40/6 29/41/6 30/42/6
f 29/41/7 24/35/7 31/43/7
f 27/44/9 22/32/9 29/45/9
f 31/46/10 18/26/10 26/47/10
f 32/48/3 33/49/3 34/50/3
f 35/51/1 36/52/1 37/53/1
f 37/54/6 38/55/6 39/56/6
f 39/57/3 40/58/3 41/59/3
f 41/60/2 42/61/2 35/62/2
f 43/63/7 37/54/7 33/64/7
f 32/65/2 34/66/2 44/67/2
f 34/66/11 41/60/11 45/68/11
f 33/49/8 39/57/8 34/50/8
f 45/69/9 35/51/9 43/70/9
f 46/71/2 26/38/2 47/72/2
f 48/73/12 49/74/12 50/75/12
f 51/76/13 52/77/13 53/78/13
f 54/79/6 55/80/6 56/81/6
f 57/82/1 58/83/1 54/84/1
f 59/85/2 53/86/2 50/87/2
f 49/88/3 51/89/3 59/90/3
f 60/91/3 61/92/3 62/93/3
f 61/94/6 63/95/6 64/96/6
f 63/97/1 65/98/1 66/99/1
f 65/100/2 60/101/2 67/102/2
f 16/24/7 15/23/7 61/94/7
f 68/103/2 69/104/2 70/105/2
f 70/105/11 71/106/11 65/100/11
f 15/107/9 70/108/9 63/97/9
f 71/109/8 16/110/8 60/91/8
f 72/111/12 46/112/12 17/113/12
f 9/13/2 73/114/2 10/14/2
f 44/115/14 12/116/14 32/117/14
f 74/118/6 43/63/6 75/119/6
f 74/120/12 75/121/12 73/122/12
f 30/123/14 69/124/14 28/125/14
f 30/126/3 31/46/3 26/47/3
f 14/22/1 12/127/1 9/21/1
f 27/44/1 29/45/1 28/128/1
f 54/129/12 56/130/12 57/131/12
f 76/132/13 55/133/13 77/134/13
f 50/135/15 78/136/15 48/137/15
f 51/138/6 49/139/6 52/140/6
f 56/141/16 76/142/16 79/143/16
f 79/144/2 77/145/2 57/146/2
f 80/147/1 81/148/1 82/149/1
f 81/150/2 83/151/2 84/152/2
f 83/153/3 85/154/3 86/155/3
f 85/156/6 80/157/6 87/158/6
f 88/159/17 89/160/17 84/161/17
f 90/162/18 91/163/18 83/164/18
f 92/165/3 89/166/3 93/167/3
f 93/168/6 88/169/6 90/170/6
f 90/171/1 94/172/1 91/173/1
f 91/174/2 95/175/2 92/176/2
f 95/177/17 94/178/17 87/179/17
f 92/180/18 93/181/18 80/182/18
f 89/160/14 95/177/14 82/183/14
f 94/178/14 88/159/14 86/184/14
f 91/163/19 92/180/19 85/185/19
f 93/181/12 90/162/12 81/186/12
f 96/187/1 97/188/1 98/189/1
f 97/190/2 99/191/2 98/192/2
f 99/193/3 100/194/3 101/195/3
f 100/196/6 96/197/6 102/198/6
f 103/199/13 98/200/13 102/201/13
f 100/202/20 99/203/20 96/204/20
f 104/205/21 105/206/21 106/207/21
f 107/208/6 108/209/6 109/210/6
f 110/211/22 106/212/22 109/213/22
f 107/214/23 105/215/23 108/216/23
f 111/217/2 112/218/2 113/219/2
f 114/220/4 115/221/4 116/222/4
f 117/223/14 113/224/14 116/225/14
f 114/226/23 112/227/23 115/228/23
f 2/2/1 5/229/1 3/3/1
f 4/5/2 7/230/2 5/6/2
f 6/8/24 8/231/24 7/9/24
f 1/11/4 3/232/4 8/12/4
f 10/14/11 4/5/11 2/4/11
f 12/16/6 14/18/6 13/17/6
f 14/18/7 1/11/7 6/10/7
f 13/20/8 6/8/8 4/7/8
f 2/2/9 1/1/9 9/21/9
f 16/24/6 72/233/6 17/25/6
f 19/27/3 21/234/3 20/28/3
f 21/30/2 23/235/2 22/31/2
f 23/33/25 25/236/25 24/34/25
f 25/36/4 19/237/4 18/37/4
f 20/29/11 22/31/11 27/39/11
f 29/41/6 31/43/6 30/42/6
f 24/35/7 18/37/7 31/43/7
f 22/32/9 24/34/9 29/45/9
f 18/26/8 20/28/8 26/47/8
f 32/48/3 75/238/3 33/49/3
f 13/20/3 10/19/3 11/239/3
f 10/19/3 118/240/3 11/239/3
f 118/240/26 75/238/26 11/239/26
f 75/238/24 32/48/24 11/239/24
f 36/52/1 38/241/1 37/53/1
f 38/55/6 40/242/6 39/56/6
f 40/58/3 42/243/3 41/59/3
f 42/61/2 36/244/2 35/62/2
f 37/54/7 39/56/7 33/64/7
f 34/66/2 45/68/2 44/67/2
f 41/60/5 35/62/5 45/68/5
f 39/57/27 41/59/27 34/50/27
f 35/51/9 37/53/9 43/70/9
f 26/38/2 27/39/2 47/72/2
f 49/74/12 59/245/12 50/75/12
f 52/77/13 78/246/13 53/78/13
f 55/80/6 76/247/6 56/81/6
f 58/83/25 55/248/25 54/84/25
f 53/86/2 78/249/2 50/87/2
f 51/89/26 53/250/26 59/90/26
f 61/92/3 64/251/3 62/93/3
f 63/95/6 66/252/6 64/96/6
f 65/98/1 67/253/1 66/99/1
f 60/101/2 62/254/2 67/102/2
f 15/23/7 63/95/7 61/94/7
f 69/104/2 71/106/2 70/105/2
f 71/106/5 60/101/5 65/100/5
f 70/108/28 65/98/28 63/97/28
f 16/110/8 61/92/8 60/91/8
f 46/112/12 47/255/12 17/113/12
f 73/114/2 118/256/2 10/14/2
f 12/116/14 11/257/14 32/117/14
f 43/63/6 33/64/6 75/119/6
f 75/121/12 118/258/12 73/122/12
f 69/124/14 68/259/14 28/125/14
f 30/126/3 26/47/3 46/260/3
f 71/109/3 69/261/3 16/110/3
f 16/110/3 69/261/3 72/262/3
f 69/261/26 30/126/26 72/262/26
f 30/126/24 46/260/24 72/262/24
f 44/263/1 45/69/1 43/70/1
f 44/263/1 43/70/1 74/264/1
f 9/21/1 12/127/1 73/265/1
f 12/127/25 44/263/25 73/265/25
f 44/263/29 74/264/29 73/265/29
f 47/266/1 27/44/1 28/128/1
f 15/107/1 68/267/1 70/108/1
f 15/107/1 17/268/1 68/267/1
f 17/268/25 47/266/25 68/267/25
f 47/266/1 28/128/1 68/267/1
f 56/269/12 79/270/12 57/271/12
f 55/133/13 58/272/13 77/134/13
f 78/136/30 52/273/30 48/137/30
f 49/139/6 48/274/6 52/140/6
f 76/142/26 77/275/26 79/143/26
f 77/145/2 58/276/2 57/146/2
f 81/148/1 84/277/1 82/149/1
f 83/151/2 86/278/2 84/152/2
f 85/154/3 87/279/3 86/155/3
f 80/157/6 82/280/6 87/158/6
f 89/160/14 82/183/14 84/161/14
f 91/163/19 85/185/19 83/164/19
f 89/166/3 88/281/3 93/167/3
f 88/169/6 94/282/6 90/170/6
f 94/172/1 95/283/1 91/173/1
f 95/175/2 89/284/2 92/176/2
f 94/178/14 86/184/14 87/179/14
f 93/181/12 81/186/12 80/182/12
f 95/177/14 87/179/14 82/183/14
f 88/159/14 84/161/14 86/184/14
f 92/180/19 80/182/19 85/185/19
f 90/162/19 83/164/19 81/186/19
f 103/285/1 96/187/1 98/189/1
f 99/191/2 101/286/2 98/192/2
f 100/194/3 102/287/3 101/195/3
f 96/197/6 103/288/6 102/198/6
f 98/200/14 101/289/14 102/201/14
f 99/203/20 97/290/20 96/204/20
f 105/206/21 119/291/21 106/207/21
f 108/209/6 110/292/6 109/210/6
f 106/212/14 119/293/14 109/213/14
f 105/215/23 104/294/23 108/216/23
f 112/218/2 120/295/2 113/219/2
f 115/221/4 117/296/4 116/222/4
f 113/224/22 120/297/22 116/225/22
f 112/227/12 111/298/12 115/228/12
