# Blender v2.69 (sub 0) OBJ File: 'Rails.blend'
# www.blender.org
mtllib Rails.mtl
o Plane
v 7.500000 0.000000 -5.000000
v -7.500000 0.000000 -5.000000
v 7.500000 0.000000 -7.000000
v -7.500000 0.000000 -7.000000
v 7.499997 0.000000 -7.500000
v 7.499997 0.000000 -7.000000
v -7.499998 0.000000 -7.000000
v -7.499994 0.000000 -7.500000
v 7.500000 0.500000 -7.500000
v 7.499992 0.500000 -7.000000
v -7.500000 0.500000 -7.000000
v -7.499996 0.500000 -7.500000
v 7.499997 0.000000 -5.000000
v 7.499997 0.000000 -4.500000
v -7.499998 0.000000 -4.500000
v -7.499994 0.000000 -5.000000
v 7.500000 0.500000 -5.000000
v 7.499992 0.500000 -4.500000
v -7.500000 0.500000 -4.500000
v -7.499996 0.500000 -5.000000
v 7.500000 0.000000 7.000000
v -7.500000 0.000000 7.000000
v 7.500000 0.000000 5.000000
v -7.500000 0.000000 5.000000
v 7.499997 0.000000 4.500000
v 7.499997 0.000000 5.000000
v -7.499998 0.000000 5.000000
v -7.499994 0.000000 4.500000
v 7.500000 0.500000 4.500000
v 7.499992 0.500000 5.000000
v -7.500000 0.500000 5.000000
v -7.499996 0.500000 4.500000
v 7.499997 0.000000 7.000000
v 7.499997 0.000000 7.500000
v -7.499998 0.000000 7.500000
v -7.499994 0.000000 7.000000
v 7.500000 0.500000 7.000000
v 7.499992 0.500000 7.500000
v -7.500000 0.500000 7.500000
v -7.499996 0.500000 7.000000
vn 0.000000 1.000000 0.000000
vn 0.000000 -1.000000 0.000000
vn 1.000000 -0.000006 0.000000
vn 0.000000 0.000000 1.000000
vn -1.000000 -0.000004 -0.000007
vn 0.000000 0.000000 -1.000000
vn 1.000000 0.000008 0.000016
usemtl Material
s off
f 2//1 1//1 4//1
f 5//2 6//2 8//2
f 9//1 12//1 11//1
f 5//3 9//3 6//3
f 6//4 10//4 7//4
f 7//5 11//5 8//5
f 9//6 5//6 12//6
f 1//1 3//1 4//1
f 6//2 7//2 8//2
f 10//1 9//1 11//1
f 9//7 10//7 6//7
f 10//4 11//4 7//4
f 11//5 12//5 8//5
f 5//6 8//6 12//6
usemtl Material.001
f 13//2 14//2 16//2
f 17//1 20//1 19//1
f 13//3 17//3 14//3
f 14//4 18//4 15//4
f 15//5 19//5 16//5
f 17//6 13//6 20//6
f 14//2 15//2 16//2
f 18//1 17//1 19//1
f 17//7 18//7 14//7
f 18//4 19//4 15//4
f 19//5 20//5 16//5
f 13//6 16//6 20//6
usemtl Material.002
f 22//1 21//1 24//1
f 25//2 26//2 28//2
f 29//1 32//1 31//1
f 25//3 29//3 26//3
f 26//4 30//4 27//4
f 27//5 31//5 28//5
f 29//6 25//6 32//6
f 21//1 23//1 24//1
f 26//2 27//2 28//2
f 30//1 29//1 31//1
f 29//7 30//7 26//7
f 30//4 31//4 27//4
f 31//5 32//5 28//5
f 25//6 28//6 32//6
usemtl Material.003
f 33//2 34//2 36//2
f 37//1 40//1 39//1
f 33//3 37//3 34//3
f 34//4 38//4 35//4
f 35//5 39//5 36//5
f 37//6 33//6 40//6
f 34//2 35//2 36//2
f 38//1 37//1 39//1
f 37//7 38//7 34//7
f 38//4 39//4 35//4
f 39//5 40//5 36//5
f 33//6 36//6 40//6
