# Blender v2.69 (sub 0) OBJ File: ''
# www.blender.org
mtllib storageCrane.mtl
o Crane_Cube.003
v -1.460142 18.202866 3.691539
v -1.460142 18.202868 -4.075802
v -1.460142 16.812407 3.691539
v 1.460142 18.202868 -4.075802
v -1.460142 16.812408 -4.075802
v 1.460142 18.202866 3.691539
v 1.460142 16.812408 -4.075802
v 1.460142 16.812407 3.691539
v -1.460142 18.156414 7.609150
v -1.460142 18.156427 -7.638009
v -1.460142 18.954885 7.609151
v 1.460142 18.156427 -7.638009
v -1.460142 18.954897 -7.638008
v 1.460142 18.156414 7.609150
v 1.460142 18.954897 -7.638008
v 1.460142 18.954885 7.609151
v -1.420285 19.732056 -7.126394
v -1.420285 19.732056 -8.536909
v -1.460142 -0.267939 -7.052573
v 1.500000 19.732056 -8.536909
v -1.460142 -0.267939 -8.463087
v 1.500000 19.732056 -7.126394
v 1.460142 -0.267939 -7.052573
v 1.420285 19.732056 -7.126394
v 1.460142 -0.267939 -7.052573
v 1.420285 19.732056 -8.536909
v 1.460142 -0.267939 -8.463087
v -1.500000 19.732056 -8.536909
v -1.460142 -0.267939 -8.463087
v -1.460142 -0.267939 -7.052573
v -1.500000 19.732056 -7.126394
v -1.460142 16.919420 0.874982
v -1.460142 16.919420 -0.874967
v 1.460142 16.919420 -0.874967
v 1.460142 16.919420 0.874982
v -1.420285 19.732044 8.389264
v -1.420285 19.732044 6.978751
v -1.460142 -0.267948 8.463087
v 1.500000 19.732044 6.978751
v -1.460142 -0.267948 7.052573
v 1.500000 19.732044 8.389264
v 1.460142 -0.267948 8.463087
v 1.420285 19.732044 8.389264
v 1.460142 -0.267948 8.463087
v 1.420285 19.732044 6.978751
v 1.460142 -0.267948 7.052573
v -1.500000 19.732044 6.978751
v -1.460142 -0.267948 7.052573
v -1.460142 -0.267948 8.463087
v -1.500000 19.732044 8.389264
v 1.460142 -0.267939 -8.463087
v 1.460142 -0.267948 7.052573
vn -1.000000 -0.000000 0.000000
vn 0.000000 0.000000 -1.000000
vn 1.000000 0.000000 0.000000
vn 0.000000 -0.000000 1.000000
vn 0.000000 -1.000000 -0.000000
vn 0.000000 1.000000 0.000000
vn 0.000000 -0.000001 1.000000
vn 0.000000 0.000002 -1.000000
vn 0.000000 -1.000000 -0.000001
vn 0.000000 1.000000 0.000001
vn -0.999998 0.001993 0.000000
vn 0.000000 -0.003691 -0.999993
vn 0.999998 -0.001993 0.000000
vn 0.000000 0.003691 0.999993
vn 0.999998 0.001993 0.000000
vn -0.999998 -0.001993 0.000000
usemtl None.001
s off
f 1//1 2//1 3//1
f 2//2 4//2 5//2
f 4//3 6//3 7//3
f 6//4 1//4 8//4
f 3//5 5//5 8//5
f 4//6 1//6 6//6
f 9//3 10//3 11//3
f 10//7 12//7 13//7
f 12//1 14//1 15//1
f 14//8 9//8 16//8
f 11//9 13//9 16//9
f 14//10 12//10 9//10
f 17//11 18//11 19//11
f 18//12 20//12 21//12
f 20//13 22//13 23//13
f 22//14 17//14 19//14
f 19//5 21//5 23//5
f 22//6 20//6 17//6
f 24//15 25//15 26//15
f 26//12 27//12 28//12
f 28//16 29//16 30//16
f 31//14 30//14 25//14
f 25//5 30//5 27//5
f 31//6 24//6 28//6
f 35//6 34//6 32//6
f 36//11 37//11 38//11
f 37//12 39//12 40//12
f 39//13 41//13 42//13
f 41//14 36//14 38//14
f 38//5 40//5 42//5
f 41//6 39//6 36//6
f 43//15 44//15 45//15
f 45//12 46//12 47//12
f 47//16 48//16 49//16
f 50//14 49//14 44//14
f 44//5 49//5 46//5
f 50//6 43//6 47//6
f 2//1 5//1 3//1
f 4//2 7//2 5//2
f 6//3 8//3 7//3
f 1//4 3//4 8//4
f 5//5 7//5 8//5
f 2//6 1//6 4//6
f 10//3 13//3 11//3
f 12//7 15//7 13//7
f 14//1 16//1 15//1
f 9//8 11//8 16//8
f 13//9 15//9 16//9
f 12//10 10//10 9//10
f 18//11 21//11 19//11
f 20//12 51//12 21//12
f 51//13 20//13 23//13
f 23//14 22//14 19//14
f 21//5 51//5 23//5
f 20//6 18//6 17//6
f 25//15 27//15 26//15
f 27//12 29//12 28//12
f 31//16 28//16 30//16
f 24//14 31//14 25//14
f 30//5 29//5 27//5
f 24//6 26//6 28//6
f 34//6 33//6 32//6
f 37//11 40//11 38//11
f 39//12 52//12 40//12
f 52//13 39//13 42//13
f 42//14 41//14 38//14
f 40//5 52//5 42//5
f 39//6 37//6 36//6
f 44//15 46//15 45//15
f 46//12 48//12 47//12
f 50//16 47//16 49//16
f 43//14 50//14 44//14
f 49//5 48//5 46//5
f 43//6 45//6 47//6
