# Blender v2.69 (sub 0) OBJ File: ''
# www.blender.org
mtllib TruckCrane.mtl
o TruckCrane_Cube.001
v -1.198235 13.999995 5.563440
v -1.198235 13.999997 -5.566036
v -1.198235 13.398551 5.563440
v 1.198235 13.999997 -5.566036
v -1.198235 13.398553 -5.566036
v 1.198235 13.999995 5.563440
v 1.198235 13.398553 -5.566036
v 1.198235 13.398551 5.563440
v 5.103529 14.977101 -5.180479
v 5.103529 14.977101 -7.499998
v 5.103529 -0.022899 -5.180481
v 7.500000 14.977101 -7.499998
v 5.103529 -0.022899 -7.500000
v 7.500000 14.977101 -5.180479
v 7.500000 -0.022899 -7.500000
v 7.500000 -0.022899 -5.180481
v 5.402328 14.146729 6.704456
v 5.402328 14.146730 -5.996706
v 5.454094 13.030141 -6.100709
v 7.305699 14.160218 -6.258650
v 7.357466 13.043630 -6.362652
v 7.305699 14.160216 6.442514
v 7.357466 13.043628 6.338513
v 5.454094 13.030139 6.600455
v 5.103529 14.977096 -5.180479
v 5.103529 14.977096 -7.499998
v 5.103529 -0.022902 -5.180481
v 7.500000 14.977096 -7.499998
v 5.103529 -0.022902 -7.500000
v 7.500000 14.977096 -5.180479
v 7.500000 -0.022902 -7.500000
v 7.500000 -0.022902 -5.180481
v -7.308084 14.199613 -5.429445
v -7.488565 14.206328 -7.247331
v -7.308084 13.109445 -5.429445
v 7.074105 14.206328 -7.247331
v -7.488565 13.116158 -7.247331
v 7.254587 14.199613 -5.429445
v 7.254587 13.109445 -5.429445
v 1.198235 13.999995 5.563440
v 1.198235 13.398551 5.563440
v 1.198235 13.999997 -5.566036
v 1.198235 13.398553 -5.566036
v -1.198235 13.999997 -5.566036
v -1.198235 13.398553 -5.566036
v -1.198235 13.999995 5.563440
v -1.198235 13.398551 5.563440
v -5.103529 14.977101 -5.180479
v -5.103529 -0.022899 -5.180481
v -5.103529 14.977101 -7.499998
v -5.103529 -0.022899 -7.500000
v -7.500000 14.977101 -7.499998
v -7.500000 -0.022899 -7.500000
v -7.500000 14.977101 -5.180479
v -7.500000 -0.022899 -5.180481
v -5.402328 14.146729 6.704456
v -5.454094 13.030139 6.600455
v -5.454094 13.030141 -6.100709
v -5.402328 14.146730 -5.996706
v -7.357466 13.043630 -6.362652
v -7.305699 14.160218 -6.258650
v -7.305699 14.160216 6.442514
v -7.357466 13.043628 6.338513
v -5.103529 14.977096 -5.180479
v -5.103529 -0.022902 -5.180481
v -5.103529 14.977096 -7.499998
v -5.103529 -0.022902 -7.500000
v -7.500000 14.977096 -7.499998
v -7.500000 -0.022902 -7.500000
v -7.500000 14.977096 -5.180479
v -7.500000 -0.022902 -5.180481
v 7.308084 14.199613 -5.429445
v 7.308084 13.109445 -5.429445
v 7.488565 14.206328 -7.247331
v 7.488565 13.116158 -7.247331
v -7.074105 14.206328 -7.247331
v -7.074105 13.116158 -7.247331
v -7.254587 13.109445 -5.429445
v -7.254587 14.199613 -5.429445
v -1.198235 13.999997 -5.563436
v -1.198235 13.398553 -5.563436
v -1.198235 13.999995 5.566041
v -1.198235 13.398551 5.566041
v 1.198235 13.999995 5.566041
v 1.198235 13.398551 5.566041
v 1.198235 13.999997 -5.563436
v 1.198235 13.398553 -5.563436
v 5.103529 14.977099 5.180483
v 5.103529 -0.022901 5.180481
v 5.103529 14.977099 7.500002
v 5.103529 -0.022901 7.500000
v 7.500000 14.977099 7.500002
v 7.500000 -0.022901 7.500000
v 7.500000 14.977099 5.180483
v 7.500000 -0.022901 5.180481
v 5.402328 14.146730 -6.704452
v 5.454094 13.030141 -6.600451
v 5.454094 13.030139 6.100713
v 5.402328 14.146729 5.996711
v 7.357466 13.043628 6.362656
v 7.305699 14.160216 6.258655
v 7.305699 14.160218 -6.442510
v 7.357466 13.043630 -6.338509
v 5.103529 14.977094 5.180483
v 5.103529 -0.022904 5.180481
v 5.103529 14.977094 7.500002
v 5.103529 -0.022904 7.500000
v 7.500000 14.977094 7.500002
v 7.500000 -0.022904 7.500000
v 7.500000 14.977094 5.180483
v 7.500000 -0.022904 5.180481
v -7.308084 14.199611 5.429450
v -7.308084 13.109443 5.429449
v -7.488565 14.206326 7.247335
v -7.488565 13.116157 7.247335
v 7.074105 14.206326 7.247335
v 7.074105 13.116157 7.247335
v 7.254587 13.109443 5.429449
v 7.254587 14.199611 5.429450
v 1.198235 13.999997 -5.563436
v 1.198235 13.999995 5.566041
v 1.198235 13.398553 -5.563436
v -1.198235 13.999995 5.566041
v 1.198235 13.398551 5.566041
v -1.198235 13.999997 -5.563436
v -1.198235 13.398551 5.566041
v -1.198235 13.398553 -5.563436
v -5.103529 14.977099 5.180483
v -5.103529 14.977099 7.500002
v -5.103529 -0.022901 5.180481
v -7.500000 14.977099 7.500002
v -5.103529 -0.022901 7.500000
v -7.500000 14.977099 5.180483
v -7.500000 -0.022901 7.500000
v -7.500000 -0.022901 5.180481
v -5.402328 14.146730 -6.704452
v -5.402328 14.146729 5.996711
v -5.454094 13.030139 6.100713
v -7.305699 14.160216 6.258655
v -7.357466 13.043628 6.362656
v -7.305699 14.160218 -6.442510
v -7.357466 13.043630 -6.338509
v -5.454094 13.030141 -6.600451
v -5.103529 14.977094 5.180483
v -5.103529 14.977094 7.500002
v -5.103529 -0.022904 5.180481
v -7.500000 14.977094 7.500002
v -5.103529 -0.022904 7.500000
v -7.500000 14.977094 5.180483
v -7.500000 -0.022904 7.500000
v -7.500000 -0.022904 5.180481
v 7.308084 14.199611 5.429450
v 7.488565 14.206326 7.247335
v 7.308084 13.109443 5.429449
v -7.074105 14.206326 7.247335
v 7.488565 13.116157 7.247335
v -7.254587 14.199611 5.429450
v -7.254587 13.109443 5.429449
v 7.074105 13.116158 -7.247331
v -7.074105 13.116157 7.247335
vn -1.000000 0.000000 0.000000
vn 0.000000 0.000000 -1.000000
vn 1.000000 0.000000 0.000000
vn 0.000000 0.000000 1.000000
vn 0.000000 -1.000000 -0.000000
vn 0.000000 1.000000 0.000000
vn -0.998927 -0.046312 -0.000000
vn -0.136430 0.085602 -0.986944
vn 0.998927 0.046312 0.000000
vn 0.136430 -0.085601 0.986944
vn 0.007087 -0.999975 -0.000000
vn -0.007086 0.999975 0.000000
vn -0.995108 0.000001 0.098795
vn 0.995108 -0.000000 -0.098796
vn 0.000000 -0.999993 -0.003693
vn 0.000000 0.999993 0.003693
vn 0.998927 -0.046312 0.000000
vn 0.136431 0.085602 -0.986944
vn -0.998927 0.046312 0.000000
vn -0.136430 -0.085601 0.986944
vn -0.007087 -0.999975 -0.000000
vn 0.007086 0.999975 0.000000
vn 0.995108 0.000001 0.098795
vn -0.995108 0.000000 -0.098796
vn 0.000000 0.999993 0.003694
vn -0.998927 -0.046311 -0.000000
vn -0.136431 0.085601 0.986944
vn 0.998927 0.046313 0.000000
vn 0.136430 -0.085600 -0.986944
vn -0.995108 0.000000 -0.098795
vn 0.995108 0.000000 0.098796
vn 0.000000 -0.999993 0.003693
vn 0.000000 0.999993 -0.003694
vn 0.136431 0.085601 0.986944
vn -0.998927 0.046313 0.000000
vn -0.136430 -0.085600 -0.986944
vn 0.995108 0.000000 -0.098795
vn -0.995108 0.000000 0.098796
vn 0.000000 0.999993 -0.003693
vn -0.136431 0.085602 -0.986944
vn -0.995108 -0.000001 0.098795
vn 0.136430 0.085602 -0.986944
vn 0.995108 -0.000001 0.098795
vn 0.000000 -0.999993 -0.003692
vn 0.000000 -0.999993 0.003692
vn 0.998927 -0.046311 -0.000000
usemtl None
s off
f 1//1 2//1 3//1
f 2//2 4//2 5//2
f 4//3 6//3 7//3
f 6//4 1//4 8//4
f 3//5 5//5 8//5
f 6//6 4//6 1//6
f 9//1 10//1 11//1
f 10//2 12//2 13//2
f 12//3 14//3 15//3
f 14//4 9//4 16//4
f 11//5 13//5 16//5
f 14//6 12//6 9//6
f 17//7 18//7 19//7
f 18//8 20//8 21//8
f 20//9 22//9 21//9
f 22//10 17//10 23//10
f 24//11 19//11 21//11
f 22//12 20//12 17//12
f 25//1 26//1 27//1
f 26//2 28//2 29//2
f 28//3 30//3 31//3
f 30//4 25//4 32//4
f 27//5 29//5 32//5
f 30//6 28//6 25//6
f 33//13 34//13 35//13
f 34//2 36//2 37//2
f 36//14 38//14 39//14
f 38//4 33//4 39//4
f 35//15 37//15 39//15
f 38//16 36//16 34//16
f 40//3 41//3 42//3
f 42//2 43//2 44//2
f 44//1 45//1 46//1
f 46//4 47//4 40//4
f 41//5 47//5 43//5
f 46//6 40//6 44//6
f 48//3 49//3 50//3
f 50//2 51//2 52//2
f 52//1 53//1 54//1
f 54//4 55//4 48//4
f 49//5 55//5 51//5
f 54//6 48//6 52//6
f 56//17 57//17 58//17
f 59//18 58//18 60//18
f 61//19 60//19 62//19
f 62//20 63//20 56//20
f 57//21 63//21 60//21
f 62//22 56//22 61//22
f 64//3 65//3 66//3
f 66//2 67//2 68//2
f 68//1 69//1 70//1
f 70//4 71//4 64//4
f 65//5 71//5 67//5
f 70//6 64//6 68//6
f 72//23 73//23 74//23
f 74//2 75//2 76//2
f 76//24 77//24 78//24
f 79//4 78//4 72//4
f 73//15 78//15 75//15
f 79//25 72//25 74//25
f 80//1 81//1 82//1
f 82//4 83//4 84//4
f 84//3 85//3 86//3
f 86//2 87//2 80//2
f 81//5 87//5 83//5
f 86//6 80//6 84//6
f 88//1 89//1 90//1
f 90//4 91//4 92//4
f 92//3 93//3 94//3
f 94//2 95//2 88//2
f 89//5 95//5 91//5
f 94//6 88//6 92//6
f 96//26 97//26 98//26
f 99//27 98//27 100//27
f 101//28 100//28 102//28
f 102//29 103//29 96//29
f 97//11 103//11 100//11
f 102//12 96//12 101//12
f 104//1 105//1 106//1
f 106//4 107//4 108//4
f 108//3 109//3 110//3
f 110//2 111//2 104//2
f 105//5 111//5 107//5
f 110//6 104//6 108//6
f 112//30 113//30 114//30
f 114//4 115//4 116//4
f 116//31 117//31 118//31
f 119//2 118//2 112//2
f 113//32 118//32 115//32
f 119//33 112//33 114//33
f 120//3 121//3 122//3
f 121//4 123//4 124//4
f 123//1 125//1 126//1
f 125//2 120//2 127//2
f 122//5 124//5 127//5
f 125//6 123//6 120//6
f 128//3 129//3 130//3
f 129//4 131//4 132//4
f 131//1 133//1 134//1
f 133//2 128//2 135//2
f 130//5 132//5 135//5
f 133//6 131//6 128//6
f 136//17 137//17 138//17
f 137//34 139//34 140//34
f 139//35 141//35 140//35
f 141//36 136//36 142//36
f 143//21 138//21 140//21
f 141//22 139//22 136//22
f 144//3 145//3 146//3
f 145//4 147//4 148//4
f 147//1 149//1 150//1
f 149//2 144//2 151//2
f 146//5 148//5 151//5
f 149//6 147//6 144//6
f 152//37 153//37 154//37
f 153//4 155//4 156//4
f 155//38 157//38 158//38
f 157//2 152//2 158//2
f 154//32 156//32 158//32
f 157//39 155//39 153//39
f 2//1 5//1 3//1
f 4//2 7//2 5//2
f 6//3 8//3 7//3
f 1//4 3//4 8//4
f 5//5 7//5 8//5
f 4//6 2//6 1//6
f 10//1 13//1 11//1
f 12//2 15//2 13//2
f 14//3 16//3 15//3
f 9//4 11//4 16//4
f 13//5 15//5 16//5
f 12//6 10//6 9//6
f 24//7 17//7 19//7
f 19//40 18//40 21//40
f 22//28 23//28 21//28
f 17//10 24//10 23//10
f 23//11 24//11 21//11
f 20//12 18//12 17//12
f 26//1 29//1 27//1
f 28//2 31//2 29//2
f 30//3 32//3 31//3
f 25//4 27//4 32//4
f 29//5 31//5 32//5
f 28//6 26//6 25//6
f 34//41 37//41 35//41
f 36//2 159//2 37//2
f 159//14 36//14 39//14
f 33//4 35//4 39//4
f 37//15 159//15 39//15
f 33//16 38//16 34//16
f 41//3 43//3 42//3
f 43//2 45//2 44//2
f 45//1 47//1 46//1
f 47//4 41//4 40//4
f 47//5 45//5 43//5
f 40//6 42//6 44//6
f 49//3 51//3 50//3
f 51//2 53//2 52//2
f 53//1 55//1 54//1
f 55//4 49//4 48//4
f 55//5 53//5 51//5
f 48//6 50//6 52//6
f 59//17 56//17 58//17
f 61//42 59//42 60//42
f 60//35 63//35 62//35
f 63//20 57//20 56//20
f 58//21 57//21 60//21
f 56//22 59//22 61//22
f 65//3 67//3 66//3
f 67//2 69//2 68//2
f 69//1 71//1 70//1
f 71//4 65//4 64//4
f 71//5 69//5 67//5
f 64//6 66//6 68//6
f 73//43 75//43 74//43
f 75//2 77//2 76//2
f 79//24 76//24 78//24
f 78//4 73//4 72//4
f 78//44 77//44 75//44
f 76//16 79//16 74//16
f 81//1 83//1 82//1
f 83//4 85//4 84//4
f 85//3 87//3 86//3
f 87//2 81//2 80//2
f 87//5 85//5 83//5
f 80//6 82//6 84//6
f 89//1 91//1 90//1
f 91//4 93//4 92//4
f 93//3 95//3 94//3
f 95//2 89//2 88//2
f 95//5 93//5 91//5
f 88//6 90//6 92//6
f 99//7 96//7 98//7
f 101//27 99//27 100//27
f 100//9 103//9 102//9
f 103//29 97//29 96//29
f 98//11 97//11 100//11
f 96//12 99//12 101//12
f 105//1 107//1 106//1
f 107//4 109//4 108//4
f 109//3 111//3 110//3
f 111//2 105//2 104//2
f 111//5 109//5 107//5
f 104//6 106//6 108//6
f 113//30 115//30 114//30
f 115//4 117//4 116//4
f 119//31 116//31 118//31
f 118//2 113//2 112//2
f 118//45 117//45 115//45
f 116//39 119//39 114//39
f 121//3 124//3 122//3
f 123//4 126//4 124//4
f 125//1 127//1 126//1
f 120//2 122//2 127//2
f 124//5 126//5 127//5
f 123//6 121//6 120//6
f 129//3 132//3 130//3
f 131//4 134//4 132//4
f 133//1 135//1 134//1
f 128//2 130//2 135//2
f 132//5 134//5 135//5
f 131//6 129//6 128//6
f 143//46 136//46 138//46
f 138//34 137//34 140//34
f 141//19 142//19 140//19
f 136//36 143//36 142//36
f 142//21 143//21 140//21
f 139//22 137//22 136//22
f 145//3 148//3 146//3
f 147//4 150//4 148//4
f 149//1 151//1 150//1
f 144//2 146//2 151//2
f 148//5 150//5 151//5
f 147//6 145//6 144//6
f 153//37 156//37 154//37
f 155//4 160//4 156//4
f 160//38 155//38 158//38
f 152//2 154//2 158//2
f 156//32 160//32 158//32
f 152//39 157//39 153//39
