# Blender v2.69 (sub 0) OBJ File: ''
# www.blender.org
mtllib TruckCraneHook.mtl
o Hook_Cube.006
v -5.259323 12.457275 0.997659
v -6.202025 12.457275 0.997660
v -5.259321 12.457275 1.249999
v -6.202025 11.704898 0.997660
v -6.202023 12.457275 1.250000
v -5.259323 11.704898 0.997658
v -6.202023 11.704898 1.201850
v -5.259321 11.704898 1.201850
v -5.259324 12.457276 -0.997654
v -5.259324 12.457276 -1.249995
v -6.202027 12.457276 -0.997653
v -6.202027 12.457276 -1.249994
v -6.202027 11.704898 -0.997653
v -6.202027 11.704898 -1.201845
v -5.259324 11.704898 -0.997654
v -5.259324 11.704898 -1.201845
v 5.259324 12.457275 0.997655
v 5.259324 12.457275 1.249996
v 6.202027 12.457275 0.997654
v 6.202027 12.457275 1.249995
v 6.202027 11.704898 0.997654
v 6.202027 11.704898 1.201846
v 5.259324 11.704898 0.997655
v 5.259324 11.704898 1.201846
v 5.259323 12.457276 -0.997658
v 6.202025 12.457276 -0.997659
v 5.259321 12.457276 -1.249998
v 6.202025 11.704898 -0.997659
v 6.202023 12.457276 -1.250000
v 5.259323 11.704898 -0.997658
v 6.202023 11.704898 -1.201850
v 5.259321 11.704898 -1.201850
v 6.500000 12.417674 1.105617
v -6.499999 12.417674 1.105623
v 6.500000 12.163111 1.105617
v -6.500000 12.417674 -1.105616
v -6.499999 12.163111 1.105623
v 6.499999 12.417674 -1.105622
v -6.500000 12.163113 -1.105616
v 6.499999 12.163113 -1.105622
v 0.693371 12.519226 0.435865
v -0.693371 12.519226 0.435865
v 1.108158 12.313958 0.696605
v -0.693371 12.519226 -0.435864
v -1.108156 12.313958 0.696606
v 0.693371 12.519226 -0.435864
v -1.108158 12.313958 -0.696604
v 1.108156 12.313958 -0.696606
v -0.193155 12.704898 -0.121420
v 0.193155 12.704898 -0.121420
v -0.251568 12.505697 -0.158140
v 0.193155 12.704898 0.121421
v 0.251568 12.505697 -0.158140
v -0.193155 12.704898 0.121421
v 0.251568 12.505697 0.158140
v -0.251568 12.505697 0.158140
vn 0.000000 1.000000 0.000000
vn -1.000000 0.000000 0.000008
vn 0.000000 -1.000000 0.000000
vn 1.000000 0.000000 -0.000008
vn 0.000001 -0.063865 0.997958
vn -0.000002 0.000002 -1.000000
vn -1.000000 -0.000001 0.000000
vn 1.000000 -0.000001 0.000000
vn -0.000001 -0.063866 -0.997958
vn 0.000001 -0.000000 1.000000
vn 1.000000 0.000000 0.000000
vn -1.000000 0.000000 0.000000
vn 0.000001 -0.063867 0.997958
vn -0.000001 0.000000 -1.000000
vn -0.000002 -0.063863 -0.997959
vn 0.000000 0.000000 1.000000
vn -0.000000 0.000000 -1.000000
vn -0.000000 -1.000000 -0.000001
vn 0.000000 0.785728 0.618572
vn -0.443537 0.896256 0.000000
vn 0.000000 0.785728 -0.618572
vn 0.443537 0.896256 0.000000
vn 0.000000 0.181283 -0.983431
vn 0.959594 0.281388 0.000000
vn 0.000000 0.181278 0.983432
vn -0.959594 0.281388 0.000000
vn -1.000000 -0.000001 0.000009
vn 1.000000 0.000000 -0.000009
vn 0.000000 -0.063866 0.997958
vn 1.000000 0.000001 0.000000
vn 0.000000 -0.063865 -0.997958
vn 1.000000 0.000002 0.000000
vn 0.000000 -0.063865 0.997958
vn -1.000000 0.000002 0.000009
vn 0.000000 -0.063866 -0.997958
vn 0.000000 0.785733 0.618566
vn -0.443536 0.896257 0.000001
vn -0.000001 0.785734 -0.618564
vn 0.443536 0.896257 -0.000001
vn 0.000000 0.181284 -0.983431
usemtl None
s off
f 1//1 2//1 3//1
f 2//2 4//2 5//2
f 4//3 6//3 7//3
f 6//4 1//4 3//4
f 3//5 5//5 8//5
f 4//6 1//6 6//6
f 9//1 10//1 11//1
f 11//7 12//7 13//7
f 13//3 14//3 15//3
f 15//8 16//8 10//8
f 10//9 16//9 12//9
f 15//10 9//10 13//10
f 17//1 18//1 19//1
f 19//11 20//11 21//11
f 21//3 22//3 23//3
f 23//12 24//12 18//12
f 18//13 24//13 20//13
f 23//14 17//14 21//14
f 25//1 26//1 27//1
f 26//4 28//4 29//4
f 28//3 30//3 31//3
f 30//2 25//2 27//2
f 27//15 29//15 32//15
f 30//10 28//10 25//10
f 33//16 34//16 35//16
f 34//12 36//12 37//12
f 36//17 38//17 39//17
f 38//11 33//11 40//11
f 35//18 37//18 40//18
f 38//1 36//1 33//1
f 41//19 42//19 43//19
f 42//20 44//20 45//20
f 44//21 46//21 47//21
f 46//22 41//22 48//22
f 49//23 50//23 51//23
f 41//1 46//1 42//1
f 50//1 49//1 52//1
f 50//24 52//24 53//24
f 52//25 54//25 55//25
f 54//26 49//26 56//26
f 2//1 5//1 3//1
f 4//27 7//27 5//27
f 6//3 8//3 7//3
f 8//28 6//28 3//28
f 5//29 7//29 8//29
f 2//14 1//14 4//14
f 10//1 12//1 11//1
f 12//12 14//12 13//12
f 14//3 16//3 15//3
f 9//30 15//30 10//30
f 16//31 14//31 12//31
f 9//10 11//10 13//10
f 18//1 20//1 19//1
f 20//32 22//32 21//32
f 22//3 24//3 23//3
f 17//7 23//7 18//7
f 24//33 22//33 20//33
f 17//14 19//14 21//14
f 26//1 29//1 27//1
f 28//28 31//28 29//28
f 30//3 32//3 31//3
f 32//34 30//34 27//34
f 29//35 31//35 32//35
f 28//10 26//10 25//10
f 34//16 37//16 35//16
f 36//12 39//12 37//12
f 38//17 40//17 39//17
f 33//11 35//11 40//11
f 37//18 39//18 40//18
f 36//1 34//1 33//1
f 42//36 45//36 43//36
f 44//37 47//37 45//37
f 46//38 48//38 47//38
f 41//39 43//39 48//39
f 50//40 53//40 51//40
f 46//1 44//1 42//1
f 49//1 54//1 52//1
f 52//24 55//24 53//24
f 54//25 56//25 55//25
f 49//26 51//26 56//26
