# Blender v2.76 (sub 0) OBJ File: ''
# www.blender.org
mtllib containerUvFix.mtl
o Cube.001
v 1.218769 -1.295500 6.096083
v -1.219629 -1.295500 6.095911
v -1.218769 -1.295500 -6.096084
v 1.219630 -1.295500 -6.095909
v 1.218768 1.295500 6.096087
v 1.219629 1.295500 -6.095911
v -1.218769 1.295500 -6.096086
v -1.219631 1.295500 6.095908
vt 0.999547 0.349696
vt -0.000187 0.349696
vt -0.000187 0.012019
vt 0.999547 0.012019
vt 1.000088 0.347460
vt -0.000170 0.347461
vt -0.000170 0.014527
vt 1.000085 0.014527
vt 0.575178 0.707769
vt 0.575178 0.989057
vt 0.424267 0.989058
vt 0.424267 0.707769
vt 1.000577 0.359665
vt 1.000576 0.690522
vt 0.000334 0.690522
vt 0.000334 0.359665
vt 0.422161 0.985216
vt 0.422161 0.707239
vt 0.576207 0.707239
vt 0.576207 0.985216
vt 0.002030 0.681099
vt 0.002030 0.367709
vt 0.999438 0.367709
vt 0.999438 0.681099
vn 0.000000 -1.000000 0.000000
vn -0.000000 1.000000 0.000000
vn -0.000100 -0.000000 1.000000
vn -1.000000 -0.000000 -0.000100
vn 0.000100 -0.000000 -1.000000
vn 1.000000 0.000000 0.000100
usemtl Material.002
s 1
f 1/1/1 2/2/1 3/3/1 4/4/1
f 5/5/2 6/6/2 7/7/2 8/8/2
f 1/9/3 5/10/3 8/11/3 2/12/3
f 2/13/4 8/14/4 7/15/4 3/16/4
f 3/17/5 7/18/5 6/19/5 4/20/5
f 5/21/6 1/22/6 4/23/6 6/24/6
